<svg width="960" height="600" viewBox="0 0 960 600" fill="none" xmlns="http://www.w3.org/2000/svg" role="img" aria-labelledby="title desc">
  <title id="title">Draw Duel game screen</title>
  <desc id="desc">A fixed-size arcade screen showing a drawing canvas, human answer bubbles, and an AI guess panel.</desc>
  <rect width="960" height="600" fill="#0B1020"/>
  <path d="M0 0h960v600H0z" fill="#101827"/>
  <path d="M0 72h960M0 144h960M0 216h960M0 288h960M0 360h960M0 432h960M0 504h960M120 0v600M240 0v600M360 0v600M480 0v600M600 0v600M720 0v600M840 0v600" stroke="#334155" stroke-opacity=".42" stroke-width="2"/>

  <rect x="64" y="52" width="832" height="496" rx="10" fill="#1E293B" stroke="#38BDF8" stroke-width="8"/>
  <rect x="96" y="88" width="768" height="392" rx="6" fill="#0B1020" stroke="#FACC15" stroke-width="4"/>
  <rect x="112" y="104" width="736" height="360" rx="4" fill="#101827" stroke="#334155" stroke-width="4"/>

  <g font-family="Press Start 2P, Courier New, monospace" font-weight="900">
    <text x="480" y="78" text-anchor="middle" font-size="30" fill="#F8FAFC">DRAW DUEL</text>
    <text x="480" y="524" text-anchor="middle" font-size="20" fill="#22D3EE">DRAW • GUESS • BEAT AI</text>
  </g>

  <rect x="150" y="136" width="440" height="276" rx="8" fill="#F8FAFC" stroke="#38BDF8" stroke-width="8"/>
  <path d="M198 338C237 280 289 268 340 318C384 362 416 318 442 254C470 190 520 176 562 216" stroke="#0B1020" stroke-width="16" stroke-linecap="round" stroke-linejoin="round"/>
  <circle cx="252" cy="204" r="40" fill="#FACC15" stroke="#0B1020" stroke-width="12"/>
  <path d="M178 386h82M286 386h82M394 386h82" stroke-width="13" stroke-linecap="round"/>
  <path d="M178 386h82" stroke="#22D3EE" stroke-width="13" stroke-linecap="round"/>
  <path d="M286 386h82" stroke="#FACC15" stroke-width="13" stroke-linecap="round"/>
  <path d="M394 386h82" stroke="#22C55E" stroke-width="13" stroke-linecap="round"/>

  <rect x="630" y="136" width="190" height="124" rx="8" fill="#0B1020" stroke="#22D3EE" stroke-width="6"/>
  <path d="M678 182h92M724 136v92" stroke="#22C55E" stroke-width="13" stroke-linecap="round"/>
  <g font-family="Press Start 2P, Courier New, monospace" font-weight="900">
    <text x="725" y="246" text-anchor="middle" font-size="14" fill="#22D3EE">AI GUESS</text>
  </g>

  <rect x="630" y="292" width="190" height="120" rx="8" fill="#0B1020" stroke="#8B5CF6" stroke-width="6"/>
  <path d="M668 350c20-30 54-30 74 0 20-30 54-30 74 0" stroke="#FACC15" stroke-width="12" stroke-linecap="round" fill="none"/>
  <g font-family="Press Start 2P, Courier New, monospace" font-weight="900">
    <text x="725" y="394" text-anchor="middle" font-size="14" fill="#F8FAFC">ANSWERS</text>
  </g>

  <circle cx="178" cy="440" r="20" fill="#22C55E"/>
  <circle cx="226" cy="440" r="20" fill="#22C55E"/>
  <circle cx="682" cy="440" r="20" fill="#38BDF8"/>
  <circle cx="730" cy="440" r="20" fill="#EF4444"/>
</svg>
