<svg xmlns="http://www.w3.org/2000/svg" width="960" height="600" viewBox="0 0 960 600" role="img" aria-labelledby="title desc">
  <title id="title">Three Word Monster thumbnail</title>
  <desc id="desc">Retro arcade monster assembled from three word chips.</desc>
  <rect width="960" height="600" fill="#0b1020"/>
  <path d="M0 0h960v600H0z" fill="#101827"/>
  <path d="M0 84h960M0 168h960M0 252h960M0 336h960M0 420h960M0 504h960M120 0v600M240 0v600M360 0v600M480 0v600M600 0v600M720 0v600M840 0v600" stroke="#334155" stroke-opacity=".55" stroke-width="2"/>
  <rect x="104" y="68" width="752" height="464" rx="8" fill="#1e293b" stroke="#38bdf8" stroke-width="8"/>
  <rect x="132" y="96" width="696" height="408" rx="4" fill="#0b1020" stroke="#facc15" stroke-width="4"/>
  <g transform="translate(290 136)">
    <path d="M190 16 235 82l76-26-23 80 67 47-82 16-8 84-75-39-75 39-8-84-82-16 67-47-23-80 76 26z" fill="#8b5cf6" stroke="#f8fafc" stroke-width="8"/>
    <path d="M92 134c-40 22-60 58-58 106 2 74 67 128 156 128s154-54 156-128c2-48-18-84-58-106-22 64-174 64-196 0z" fill="#22c55e" stroke="#0b1020" stroke-width="8"/>
    <circle cx="144" cy="206" r="22" fill="#f8fafc" stroke="#0b1020" stroke-width="8"/>
    <circle cx="236" cy="206" r="22" fill="#f8fafc" stroke="#0b1020" stroke-width="8"/>
    <circle cx="151" cy="211" r="7" fill="#0b1020"/>
    <circle cx="229" cy="211" r="7" fill="#0b1020"/>
    <path d="M140 278c32 24 68 24 100 0" fill="none" stroke="#0b1020" stroke-width="12" stroke-linecap="round"/>
    <path d="M62 252 10 294M318 252l52 42" stroke="#ef4444" stroke-width="14" stroke-linecap="round"/>
  </g>
  <g font-family="Courier New, monospace" font-weight="900">
    <rect x="164" y="430" width="168" height="54" rx="4" fill="#facc15"/>
    <rect x="396" y="430" width="168" height="54" rx="4" fill="#38bdf8"/>
    <rect x="628" y="430" width="168" height="54" rx="4" fill="#ef4444"/>
    <text x="248" y="465" text-anchor="middle" font-size="25" fill="#0b1020">WORD 1</text>
    <text x="480" y="465" text-anchor="middle" font-size="25" fill="#0b1020">WORD 2</text>
    <text x="712" y="465" text-anchor="middle" font-size="25" fill="#f8fafc">WORD 3</text>
    <text x="480" y="78" text-anchor="middle" font-size="32" fill="#f8fafc">THREE WORD MONSTER</text>
  </g>
</svg>
