<svg width="960" height="600" viewBox="0 0 960 600" fill="none" xmlns="http://www.w3.org/2000/svg" role="img" aria-labelledby="title desc">
  <title id="title">Three Word Monster game screen</title>
  <desc id="desc">A fixed-size arcade screen showing three word chips combining into a monster and vote panel.</desc>
  <rect width="960" height="600" fill="#0B1020"/>
  <path d="M0 0h960v600H0z" fill="#101827"/>
  <path d="M0 72h960M0 144h960M0 216h960M0 288h960M0 360h960M0 432h960M0 504h960M120 0v600M240 0v600M360 0v600M480 0v600M600 0v600M720 0v600M840 0v600" stroke="#334155" stroke-opacity=".42" stroke-width="2"/>

  <rect x="64" y="52" width="832" height="496" rx="10" fill="#1E293B" stroke="#38BDF8" stroke-width="8"/>
  <rect x="96" y="88" width="768" height="392" rx="6" fill="#0B1020" stroke="#FACC15" stroke-width="4"/>
  <rect x="112" y="104" width="736" height="360" rx="4" fill="#101827" stroke="#334155" stroke-width="4"/>

  <g font-family="Press Start 2P, Courier New, monospace" font-weight="900">
    <text x="480" y="78" text-anchor="middle" font-size="24" fill="#F8FAFC">THREE WORD MONSTER</text>
    <text x="480" y="524" text-anchor="middle" font-size="20" fill="#22D3EE">3 WORDS • MONSTER • VOTE</text>
  </g>

  <rect x="146" y="126" width="668" height="64" rx="6" fill="#0B1020" stroke="#334155" stroke-width="4"/>
  <g font-family="Press Start 2P, Courier New, monospace" font-weight="900">
    <rect x="164" y="140" width="166" height="36" rx="4" fill="#FACC15"/>
    <rect x="396" y="140" width="166" height="36" rx="4" fill="#38BDF8"/>
    <rect x="628" y="140" width="166" height="36" rx="4" fill="#EF4444"/>
    <text x="247" y="164" text-anchor="middle" font-size="15" fill="#0B1020">WORD 1</text>
    <text x="479" y="164" text-anchor="middle" font-size="15" fill="#0B1020">WORD 2</text>
    <text x="711" y="164" text-anchor="middle" font-size="15" fill="#F8FAFC">WORD 3</text>
  </g>

  <g transform="translate(296 172)">
    <path d="M184 2 226 64l74-26-22 78 66 46-80 16-8 82-72-38-72 38-8-82-80-16 66-46-22-78 74 26z" fill="#8B5CF6" stroke="#F8FAFC" stroke-width="8"/>
    <path d="M88 120c-40 22-62 60-60 106 3 76 66 130 156 130s153-54 156-130c2-46-20-84-60-106-23 64-169 64-192 0z" fill="#22C55E" stroke="#0B1020" stroke-width="8"/>
    <circle cx="136" cy="198" r="22" fill="#F8FAFC" stroke="#0B1020" stroke-width="8"/>
    <circle cx="232" cy="198" r="22" fill="#F8FAFC" stroke="#0B1020" stroke-width="8"/>
    <circle cx="144" cy="203" r="7" fill="#0B1020"/>
    <circle cx="224" cy="203" r="7" fill="#0B1020"/>
    <path d="M134 270c32 23 68 23 100 0" fill="none" stroke="#0B1020" stroke-width="12" stroke-linecap="round"/>
    <path d="M58 242 8 280M310 242l50 38" stroke="#EF4444" stroke-width="14" stroke-linecap="round"/>
  </g>

  <rect x="140" y="390" width="206" height="48" rx="6" fill="#0B1020" stroke="#22D3EE" stroke-width="4"/>
  <rect x="614" y="390" width="206" height="48" rx="6" fill="#0B1020" stroke="#FACC15" stroke-width="4"/>
  <g font-family="Press Start 2P, Courier New, monospace" font-weight="900">
    <text x="243" y="421" text-anchor="middle" font-size="15" fill="#22D3EE">GALLERY</text>
    <text x="717" y="421" text-anchor="middle" font-size="15" fill="#FACC15">VOTE</text>
  </g>
</svg>
